<?xml version="1.0" encoding="utf-8"?>
<!-- Generator: Adobe Illustrator 27.3.1, SVG Export Plug-In . SVG Version: 6.00 Build 0)  -->
<svg version="1.1" id="Layer_1" xmlns="http://www.w3.org/2000/svg" xmlns:xlink="http://www.w3.org/1999/xlink" x="0px" y="0px"
	 viewBox="0 0 1080 1080" style="enable-background:new 0 0 1080 1080;" xml:space="preserve">
<style type="text/css">
	.st0{fill:#FBB03B;}
	.st1{fill:#1F60AB;}
	.st2{font-family:'AlbraTextBold';}
	.st3{font-size:147.4609px;}
</style>
<g>
	<path class="st0" d="M260.42,594.3l43.51,25.22l-46.2,25.22l-38.94-22.57c-2-1.16-1.96-4.06,0.07-5.17L260.42,594.3z"/>
	<path class="st1" d="M258.95,486.37l-40.1,21.89c-2.03,1.11-2.07,4.01-0.07,5.17l37.46,21.71c0.92,0.53,1.48,1.51,1.48,2.57v107.02
		l44.65-24.37c0.95-0.52,1.55-1.52,1.55-2.6V512.49c0-1.06-0.56-2.04-1.48-2.57l-40.58-23.52
		C260.97,485.88,259.86,485.87,258.95,486.37z"/>
	<path class="st0" d="M164.06,541.76l-43.51,25.22l46.2,25.22l38.94-22.57c2-1.16,1.96-4.06-0.07-5.17L164.06,541.76z"/>
	<path class="st1" d="M165.53,433.83l40.1,21.89c2.03,1.11,2.07,4.01,0.07,5.17l-37.46,21.71c-0.92,0.53-1.48,1.51-1.48,2.57v107.02
		l-44.65-24.37c-0.95-0.52-1.55-1.52-1.55-2.6V459.95c0-1.06,0.56-2.04,1.48-2.57l40.58-23.52
		C163.52,433.34,164.62,433.33,165.53,433.83z"/>
	<g>
		<text transform="matrix(1 0 0 1 346.2691 606.2874)" class="st1 st2 st3">Sy-intelli</text>
	</g>
</g>
</svg>
